<svg xmlns="http://www.w3.org/2000/svg" viewBox="0 0 1000 1000">
  <g fill="none" stroke="#2B2320" stroke-width="9" stroke-linecap="round" stroke-linejoin="round">

    <circle cx="150" cy="200" r="90"/>
    <circle cx="120" cy="170" r="14"/><circle cx="185" cy="230" r="10"/><circle cx="150" cy="250" r="16"/>
    <g transform="translate(830 170) rotate(-10)">
      <circle cx="0" cy="0" r="68"/><ellipse cx="0" cy="0" rx="122" ry="30"/>
    </g>
    <circle cx="860" cy="760" r="72"/>
    <path d="M 815 730 Q 860 745 905 730 M 820 770 Q 860 785 900 770 M 830 800 Q 860 810 890 800" stroke-width="5.3999999999999995"/>
    <polygon points="80,598 85.43113573118245,612.5246829719755 100.92324335849338,613.2016261237511 88.78776221056722,622.8553170280245 92.9312755504344,637.7983738762489 80,629.24 67.0687244495656,637.7983738762489 71.21223778943278,622.8553170280245 59.07675664150662,613.2016261237511 74.56886426881755,612.5246829719755"/><polygon points="920,460 924.9373961192567,473.20425724725044 939.0211303259031,473.819660112501 927.9888747368793,482.5957427527496 931.7557050458495,496.180339887499 920,488.4 908.2442949541505,496.180339887499 912.0111252631207,482.5957427527496 900.9788696740969,473.8196601125011 915.0626038807433,473.20425724725044"/><polygon points="280,114 283.9499168954054,124.56340579780036 295.21690426072246,125.05572809000084 286.3910997895034,132.07659420219966 289.4045640366796,142.94427190999915 280,136.72 270.5954359633204,142.94427190999915 273.6089002104966,132.07659420219966 264.78309573927754,125.05572809000084 276.0500831045946,124.56340579780036"/><polygon points="650,880 654.9373961192567,893.2042572472504 669.0211303259031,893.8196601125011 657.9888747368793,902.5957427527495 661.7557050458495,916.1803398874989 650,908.4 638.2442949541505,916.1803398874989 642.0111252631207,902.5957427527495 630.9788696740969,893.8196601125011 645.0626038807433,893.2042572472504"/><polygon points="60,884 63.94991689540542,894.5634057978003 75.21690426072246,895.0557280900008 66.39109978950343,902.0765942021997 69.40456403667957,912.9442719099992 60,906.72 50.59543596332043,912.9442719099992 53.60890021049657,902.0765942021997 44.78309573927754,895.0557280900008 56.05008310459458,894.5634057978003"/>
    <circle cx="700" cy="60" r="6" fill="#2B2320"/><circle cx="950" cy="620" r="6" fill="#2B2320"/><circle cx="380" cy="900" r="6" fill="#2B2320"/>
    
    <path d="M 420 320 L 500 120 L 580 320 Z"/>
    <rect x="420" y="320" width="160" height="380"/>
    <circle cx="500" cy="440" r="58"/>
    
  <path d="M 475.8 457.6
    C 468.32 436.48 482.4 407.44 500 403.92
    C 517.6 407.44 531.68 436.48 524.2 457.6
    C 522 474.32 478 474.32 475.8 457.6 Z"/>
  <line x1="497.36" y1="403.92" x2="495.6" y2="390.72"/>
  <polygon points="495.6,390.72 506.16,393.36 499.12,397.76"/>
  <path d="M 476.24 440 Q 459.52 437.36 457.76 426.8"/>
  <path d="M 523.76 440 Q 540.48 437.36 543.12 427.68"/>
  <rect x="450.72" y="421.52" width="4.4" height="14.96" rx="1.32"
        transform="rotate(-28 452.92 429)"/>
  <path d="M 538.72 421.52 h 9.68 v 3.96 a 2.64 2.64 0 0 1 0 5.28 v 3.96 h -9.68 z"/>
  <ellipse cx="491.2" cy="474.32" rx="6.16" ry="3.08"/>
  <ellipse cx="508.8" cy="474.32" rx="6.16" ry="3.08"/>
  <circle cx="492.08" cy="433.84" r="2.42" fill="#2B2320"/>
  <circle cx="507.92" cy="433.84" r="2.42" fill="#2B2320"/>
  <path d="M 493.84 443.52 Q 500 447.92 506.16 443.52" stroke-width="6.3"/>
    <path d="M 420 560 L 330 700 L 420 660 Z"/>
    <path d="M 580 560 L 670 700 L 580 660 Z"/>
    <path d="M 452 700 L 500 860 L 548 700 Z"/>
    <path d="M 452 700 Q 480 760 460 830 M 548 700 Q 520 760 540 830" stroke-width="6.3"/>
  
  </g>
</svg>
