<svg xmlns="http://www.w3.org/2000/svg" viewBox="0 0 1000 1000">
  <g fill="none" stroke="#2B2320" stroke-width="9" stroke-linecap="round" stroke-linejoin="round">

    <path d="M 630 260 A 130 130 0 0 1 890 260"/><path d="M 608 260 A 152 152 0 0 1 912 260"/><path d="M 586 260 A 174 174 0 0 1 934 260"/>
    <path d="M 810.5 217
    a 28.9 28.9 0 0 1 8 -66
    a 34 34 0 0 1 78 -10
    a 27.2 27.2 0 0 1 46 40
    a 25.5 25.5 0 0 1 -12 60
    h -150 a 23.8 23.8 0 0 1 0 -56 Z"/>
    <path d="M 60 900 Q 200 860 340 900 Q 480 930 620 900 Q 720 880 800 900" stroke-width="7.2"/>
    <path d="M 140 890 l -10 -34 M 170 895 l 6 -30 M 620 895 l -8 -30 M 660 890 l 10 -32"/>
    <ellipse cx="470" cy="680" rx="180" ry="140"/>
    <path d="M 560 780 Q 640 800 660 750 Q 650 720 600 725 Q 630 745 610 770 Q 590 785 560 780 Z"/>
    <path d="M 290 730 Q 250 770 260 810"/>
    <ellipse cx="252" cy="822" rx="30" ry="18"/>
    <circle cx="330" cy="530" r="110"/>
    <path d="M 260 460 C 230 340 250 210 300 140 C 320 230 320 340 320 460 Z"/>
    <path d="M 400 460 C 420 330 450 200 500 150 C 500 250 470 350 450 460 Z"/>
    <circle cx="290" cy="510" r="12" fill="#2B2320"/><circle cx="360" cy="505" r="12" fill="#2B2320"/>
    <path d="M 300 545 Q 325 560 350 545" stroke-width="6.3"/>
    <path d="M 250 560 L 195 555 M 250 575 L 195 585 M 400 555 L 455 550 M 400 570 L 455 580" stroke-width="5.3999999999999995"/>
    <path d="M 205 585 L 140 630 L 130 600 Z"/>
    <path d="M 140 605 Q 120 580 130 555 M 155 615 Q 138 595 145 570" stroke-width="5.3999999999999995"/>
    <circle cx="620" cy="770" r="42"/>
    <path d="M 700 800 Q 780 810 830 780 M 700 830 Q 770 850 820 820"/>
    <path d="M 220 800 Q 160 770 140 810 Q 190 800 230 830" />
    
  <path d="M 534.7 648.4
    C 526.88 626.32 541.6 595.96 560 592.28
    C 578.4 595.96 593.12 626.32 585.3 648.4
    C 583 665.88 537 665.88 534.7 648.4 Z"/>
  <line x1="557.24" y1="592.28" x2="555.4" y2="578.48"/>
  <polygon points="555.4,578.48 566.44,581.24 559.08,585.84"/>
  <path d="M 535.16 630 Q 517.68 627.24 515.84 616.2"/>
  <path d="M 584.84 630 Q 602.32 627.24 605.08 617.12"/>
  <rect x="508.48" y="610.68" width="4.6000000000000005" height="15.64" rx="1.3800000000000001"
        transform="rotate(-28 510.78 618.5)"/>
  <path d="M 600.48 610.68 h 10.120000000000001 v 4.140000000000001 a 2.7600000000000002 2.7600000000000002 0 0 1 0 5.5200000000000005 v 4.140000000000001 h -10.120000000000001 z"/>
  <ellipse cx="550.8" cy="665.88" rx="6.44" ry="3.22"/>
  <ellipse cx="569.2" cy="665.88" rx="6.44" ry="3.22"/>
  <circle cx="551.72" cy="623.56" r="2.5300000000000002" fill="#2B2320"/>
  <circle cx="568.28" cy="623.56" r="2.5300000000000002" fill="#2B2320"/>
  <path d="M 553.56 633.68 Q 560 638.28 566.44 633.68" stroke-width="6.3"/>
    <polygon points="700,482 704.4436565073311,493.8838315225254 717.1190172933127,494.43769410125094 707.1899872631914,502.3361684774746 710.5801345412646,514.5623058987491 700,507.56 689.4198654587354,514.5623058987491 692.8100127368086,502.3361684774746 682.8809827066873,494.43769410125094 695.5563434926689,493.8838315225254"/><polygon points="140,284 143.9499168954054,294.5634057978003 155.21690426072246,295.05572809000085 146.39109978950344,302.07659420219966 149.40456403667957,312.94427190999915 140,306.72 130.59543596332043,312.94427190999915 133.60890021049656,302.07659420219966 124.78309573927754,295.05572809000085 136.0500831045946,294.5634057978003"/><polygon points="880,604 883.9499168954054,614.5634057978003 895.2169042607225,615.0557280900008 886.3910997895034,622.0765942021997 889.4045640366795,632.9442719099992 880,626.72 870.5954359633205,632.9442719099992 873.6089002104966,622.0765942021997 864.7830957392775,615.0557280900008 876.0500831045946,614.5634057978003"/>
  
  </g>
</svg>
